<?xml version="1.0" encoding="UTF-8" standalone="no"?>
<svg
   width="410.73318pt"
   height="410.73318pt"
   viewBox="0 0 410.73318 410.73318"
   version="1.2"
   id="svg9"
   sodipodi:docname="cmbm_logo.svg"
   inkscape:version="1.3.1 (1:1.3.1+202311172155+91b66b0783)"
   inkscape:export-filename="cmbm_logo.png"
   inkscape:export-xdpi="96"
   inkscape:export-ydpi="96"
   xmlns:inkscape="http://www.inkscape.org/namespaces/inkscape"
   xmlns:sodipodi="http://sodipodi.sourceforge.net/DTD/sodipodi-0.dtd"
   xmlns="http://www.w3.org/2000/svg"
   xmlns:svg="http://www.w3.org/2000/svg">
  <sodipodi:namedview
     id="namedview9"
     pagecolor="#505050"
     bordercolor="#eeeeee"
     borderopacity="1"
     inkscape:showpageshadow="0"
     inkscape:pageopacity="0"
     inkscape:pagecheckerboard="0"
     inkscape:deskcolor="#d1d1d1"
     inkscape:document-units="pt"
     inkscape:zoom="1.6425376"
     inkscape:cx="259.65919"
     inkscape:cy="296.79685"
     inkscape:window-width="2468"
     inkscape:window-height="1733"
     inkscape:window-x="102"
     inkscape:window-y="102"
     inkscape:window-maximized="0"
     inkscape:current-layer="surface1069" />
  <defs
     id="defs2">
    <clipPath
       id="clip1">
      <path
         d="M 0,0 H 439.25781 V 439.25781 H 0 Z m 0,0"
         id="path1" />
    </clipPath>
    <clipPath
       id="clip2">
      <path
         d="M 0,0 H 439.25781 V 439.25781 H 0 Z m 0,0"
         id="path2" />
    </clipPath>
  </defs>
  <g
     id="surface1069"
     transform="translate(-14.264263,-14.264263)">
    <g
       id="g10"
       style="fill:#000000;fill-opacity:1;stroke:none;stroke-opacity:1">
      <path
         style="fill:#000000;fill-opacity:1;fill-rule:nonzero;stroke:none;stroke-opacity:1"
         d="m 178.16016,138.71484 c -30.61329,0.0312 -27.98047,-0.78906 -49.1875,0 -9.05469,0.33594 -20.6211,4.16797 -29.453129,15.27344 -8.277343,10.5 -12.417969,21.30078 -12.417969,32.40625 0,20.84766 13.605468,31.26953 40.812498,31.26953 h 80.52344 c -1.56641,8.07813 -7.69922,12.11719 -18.39844,12.11719 h -70.3789 c -17.41407,0 -31.546879,-2.52344 -42.402348,-7.57422 C 62.367188,215.24219 54.996094,203.91016 55.148438,188.21094 55.25,179.42969 57.949219,170.64453 63.25,161.86328 c 7.21875,-12.01562 15.476562,-22.80469 28.753906,-29.76953 12.871094,-6.76562 26.597654,-8.84766 32.992184,-8.84766 h 4.41016 c 4.89844,0 34.73828,1.34766 38.57812,5.08203 3.88672,3.73829 10.17579,5.53907 10.17579,10.38672 z m 0,0"
         id="path5" />
      <path
         style="fill:#000000;fill-opacity:1;fill-rule:nonzero;stroke:none;stroke-opacity:1"
         d="m 227.10937,278.34766 34.67579,-107.47657 -35.82422,29.76953 c -4.03907,4.49219 -8.45703,6.73829 -13.25,6.73829 -0.91016,0 -1.86719,-0.0742 -2.87891,-0.22657 -5.75391,-0.65625 -8.63281,-3.53515 -8.63281,-8.63281 0,-1.96875 0.45703,-4.08984 1.36328,-6.35937 L 219.46094,155.5 174.47266,200.48828 c -3.12891,3.83594 -7.72266,5.75391 -13.78125,5.75391 h -15.3711 l 29.89844,-69.80078 -21.44141,-2.5625 -23.37109,-10.63282 h 61.6875 c 6.96484,0 10.44922,2.55079 10.44922,7.64844 0,1.96875 -0.48047,4.33984 -1.44141,7.11719 l -12.46875,23.40625 27.19141,-24.06641 c 4.14062,-4.74609 10.95312,-9.21094 13.17578,-10.62109 3.68359,-2.32422 8.45312,-3.48438 14.3125,-3.48438 1.66406,0 3.40625,0.57813 5.22266,1.74219 2.77734,1.81641 4.16406,4.51563 4.16406,8.10156 0,2.21875 -0.55469,4.71875 -1.66406,7.4961 l -15.38282,34.52734 29.84375,-25.66797 c 4.14063,-4.14062 6.89063,-6.64062 8.25391,-7.49609 2.37109,-1.36328 5.77734,-2.01953 10.22266,-1.96875 1.76562,0 3.63281,0.65625 5.60156,1.96875 3.02734,1.96875 4.54297,4.84375 4.54297,8.6289 0,2.17188 -0.50391,4.57032 -1.51563,7.19532 l -32.98828,89.8789 c -7.91406,9.4375 -16.88281,16.09766 -32.50781,30.69532 z m 0,0"
         id="path6" />
      <path
         style="fill:#000000;fill-opacity:1;fill-rule:nonzero;stroke:none;stroke-opacity:1"
         d="m 229.79297,233.26562 c 0,7.42188 -3.91406,14.35938 -11.73828,20.82422 -4.69532,3.88672 -11.83594,8.17578 -21.42969,12.8711 3.89062,6.71093 5.83203,12.79687 5.83203,18.24609 0,11.25781 -7.26953,19.58594 -21.80469,24.98828 -10.40234,3.83594 -22.51562,5.75391 -36.34765,5.75391 h -39.3711 l 27.33203,-77.6875 h 27.25782 l -23.24219,65.57422 h 3.85937 c 8.83594,0 16.30469,-1.01172 22.41407,-3.03125 9.03515,-3.07813 13.55078,-8.10157 13.55078,-15.06641 0,-2.22266 -1.00781,-4.87109 -3.02735,-7.94922 -2.01953,-3.13281 -3.02734,-5.40234 -3.02734,-6.8164 0,-0.70704 0.043,-1.21094 0.14844,-1.51563 1.01172,-2.21875 3.76172,-4.39062 8.2539,-6.51172 6.21094,-2.97656 10.75391,-5.72656 13.62891,-8.25 4.84766,-4.1914 7.26953,-9.03906 7.26953,-14.53906 0,-7.77344 -5.92969,-11.66016 -17.79297,-11.66016 h -74.39453 l 11.66016,-10.77343 h 74.16797 c 11.60937,0 19.80468,-0.44532 24.89453,0.875 5.08984,1.32031 11.90234,5.73437 11.90234,14.66796 z m 0,0"
         id="path7" />
      <path
         style="fill:#000000;fill-opacity:1;fill-rule:nonzero;stroke:none;stroke-opacity:1"
         d="m 377.48437,303.89844 c -2.12109,8.07422 -9.13671,12.11328 -21.05078,12.11328 H 329.25 c -8.48047,0 -12.71875,-2.44922 -12.71875,-7.34375 0,-1.71485 0.53125,-3.96485 1.58984,-6.73828 l 14.64453,-44.82422 -35.82421,29.76562 c -4.03907,4.49219 -8.45704,6.73828 -13.25,6.73828 -0.91016,0 -1.86719,-0.0742 -2.87891,-0.22656 -5.75391,-0.65625 -8.63281,-3.53125 -8.63281,-8.6289 0,-1.96875 0.45703,-4.08985 1.36328,-6.36329 l 16.89844,-36.65625 -44.98829,44.98829 c -3.1289,3.83593 -7.72265,5.7539 -13.78125,5.7539 l -9.49609,-0.49219 20.91016,-63.42578 c 7.83984,-24.45312 6.03515,-18.09375 9.46484,-28.38281 12.46094,4.58984 44.0625,-57.53906 40.82813,-45.32031 l -33.76563,92.79687 27.19141,-24.07031 c 4.14062,-4.74219 10.95312,-9.20703 13.17578,-10.62109 3.68359,-2.32032 8.45703,-3.48438 14.3125,-3.48438 1.66406,0 3.40625,0.58203 5.22265,1.74219 2.77735,1.81641 4.16407,4.51953 4.16407,8.10156 0,2.22266 -0.55469,4.71875 -1.66407,7.4961 l -15.38281,34.52734 29.84375,-25.66797 c 4.14063,-4.13672 6.89063,-6.63672 8.25391,-7.49609 2.37109,-1.36328 5.77734,-2.01953 10.22265,-1.96875 1.76563,0 3.63282,0.65625 5.60157,1.96875 3.02734,1.96875 4.54297,4.84765 4.54297,8.63281 0,2.17187 -0.50391,4.56641 -1.51563,7.19141 l -20.17187,59.89453 z m 0,0"
         id="path8" />
    </g>
    <g
       clip-path="url(#clip2)"
       clip-rule="nonzero"
       id="g9"
       style="fill:none;fill-opacity:1;stroke:#000000;stroke-opacity:1">
      <path
         style="fill:none;fill-opacity:1;stroke:#000000;stroke-width:16.1121;stroke-linecap:butt;stroke-linejoin:miter;stroke-miterlimit:4;stroke-opacity:1"
         d="m 416.94141,219.62891 c 0,108.97265 -88.33985,197.3125 -197.3125,197.3125 -108.97266,0 -197.308598,-88.33985 -197.308598,-197.3125 0,-108.97266 88.335938,-197.308598 197.308598,-197.308598 108.97265,0 197.3125,88.335938 197.3125,197.308598"
         id="path9" />
    </g>
  </g>
</svg>
